<?xml version="1.0" encoding="UTF-8"?>
<svg id="Layer_2" data-name="Layer 2" xmlns="http://www.w3.org/2000/svg" viewBox="0 0 769.65 601.33">
  <defs>
    <style>
      .cls-1 {
        stroke: #dbdbdb;
        stroke-width: 9px;
      }

      .cls-1, .cls-2 {
        fill: none;
        stroke-linecap: round;
        stroke-miterlimit: 10;
      }

      .cls-2 {
        stroke: #fff;
        stroke-width: 14px;
      }

      .cls-3 {
        fill: #6bbe45;
      }

      .cls-4 {
        fill: #3b82f6;
      }
    </style>
  </defs>
  <g id="Layer_1-2" data-name="Layer 1">
    <g>
      <rect class="cls-3" x="0" y="295.92" width="769.65" height="305.42"/>
      <rect class="cls-4" x="0" y="0" width="769.65" height="305.42"/>
      <path class="cls-4" d="M422,519.59l-179.78-214.77,298.03-.6,169.53,194.86-243.56-123.28c-1.03-.52-2.27.02-2.6,1.13l-41.61,142.66Z"/>
      <path class="cls-3" d="M360.47,89.44l179.78,214.77-298.03.6L72.7,109.95l243.56,123.28c1.03.52,2.27-.02,2.6-1.13l41.61-142.66Z"/>
      <path class="cls-2" d="M206.6,162.78c4.45-5.62,75.26-92.28,185.88-90.2,113.69,2.13,236.6,86.02,236.6,225.26"/>
      <path class="cls-2" d="M153.56,335.94c.81,7.12,15.27,118.09,110.35,174.68,97.72,58.15,221.9,51.71,295.34-66.58"/>
      <path class="cls-3" d="M189.7,268.54h0c4.81,0,8.71,3.9,8.71,8.71v32.92h-17.42v-32.92c0-4.81,3.9-8.71,8.71-8.71Z"/>
      <path class="cls-4" d="M580.07,303.53h17.42v32.92c0,4.81-3.9,8.71-8.71,8.71h0c-4.81,0-8.71-3.9-8.71-8.71v-32.92h0Z"/>
      <path class="cls-4" d="M646.58,303.53h17.42v32.92c0,4.81-3.9,8.71-8.71,8.71h0c-4.81,0-8.71-3.9-8.71-8.71v-32.92h0Z"/>
      <path class="cls-3" d="M679.76,306.44c0-35.98-25.39-65.16-56.71-65.16-31.32,0-56.71,29.17-56.71,65.16"/>
      <path class="cls-1" d="M135.29,381.43s-68.17-25.64-55.5-94.11h16.59s-7.39-36.2,25.04-41.33c33.63-1.81,28.66,24.13,29.86,41.02h11.76s-5.43-20.51,7.54-30.16L43.59,94.57l158.06,33.78s141.17-146,313.71-55.5c0,0,103.77,45.85,130.31,149.62,0,0,43.59,7.87,52.64,83.29l1.06,16.26c-6.3.24-10.03-.22-15.65.84-.08.01-.13.09-.11.17.41,1.97,2.57,18.65-7.4,29.82-8.09,9.07-20.42,10.98-29.63,8.39-14.15-3.99-24.31-19.56-22.62-37.4-5.03.2-10.05.4-15.08.6l.02.36c.97,22.91,9.1,44.95,23.24,63,37.09,47.35,74.18,94.71,111.28,142.06l-160.17-72.4s-76.02,159.27-283.25,105.88c0,0-119.45-33.48-164.7-181.89Z"/>
      <path class="cls-3" d="M127.86,268.54h0c4.81,0,8.71,3.9,8.71,8.71v32.92h-17.42v-32.92c0-4.81,3.9-8.71,8.71-8.71Z"/>
      <path class="cls-4" d="M217.34,305.42c0,35.98-25.39,65.16-56.71,65.16s-56.71-29.17-56.71-65.16"/>
    </g>
  </g>
</svg>